<svg xmlns="http://www.w3.org/2000/svg" xmlns:xlink="http://www.w3.org/1999/xlink" contentStyleType="text/css" data-diagram-type="SEQUENCE" height="462.5px" preserveAspectRatio="none" style="width:908px;height:462px;" version="1.1" viewBox="0 0 908 462" width="908.3333px" zoomAndPan="magnify"><defs><linearGradient id="g16fh4arbdhvw00" x1="50%" x2="50%" y1="0%" y2="100%"><stop offset="0%" stop-color="#F18E3E"/><stop offset="100%" stop-color="#EC7211"/></linearGradient></defs><g><g><title>Dev</title><rect fill="#000000" fill-opacity="0.00000" height="272.984" width="8.3333" x="20.6376" y="95.1501"/><line style="stroke:#ABB6C2;stroke-width:0.5208;stroke-dasharray:5.0,5.0;" x1="23.9583" x2="23.9583" y1="95.1501" y2="368.1342"/></g><g><title>GitHub</title><rect fill="#000000" fill-opacity="0.00000" height="272.984" width="8.3333" x="125.5732" y="95.1501"/><line style="stroke:#ABB6C2;stroke-width:0.5208;stroke-dasharray:5.0,5.0;" x1="128.7752" x2="128.7752" y1="95.1501" y2="368.1342"/></g><g><title>AWS</title><rect fill="#000000" fill-opacity="0.00000" height="272.984" width="8.3333" x="278.3172" y="95.1501"/><line style="stroke:#ABB6C2;stroke-width:0.5208;stroke-dasharray:5.0,5.0;" x1="281.7463" x2="281.7463" y1="95.1501" y2="368.1342"/></g><g><title>Terraform</title><rect fill="#000000" fill-opacity="0.00000" height="272.984" width="8.3333" x="440.33" y="95.1501"/><line style="stroke:#ABB6C2;stroke-width:0.5208;stroke-dasharray:5.0,5.0;" x1="443.6381" x2="443.6381" y1="95.1501" y2="368.1342"/></g><g><title>EKS</title><rect fill="#000000" fill-opacity="0.00000" height="272.984" width="8.3333" x="605.2726" y="95.1501"/><line style="stroke:#ABB6C2;stroke-width:0.5208;stroke-dasharray:5.0,5.0;" x1="609.0809" x2="609.0809" y1="95.1501" y2="368.1342"/></g><g><title>Job</title><rect fill="#000000" fill-opacity="0.00000" height="272.984" width="8.3333" x="744.129" y="95.1501"/><line style="stroke:#ABB6C2;stroke-width:0.5208;stroke-dasharray:5.0,5.0;" x1="747.2977" x2="747.2977" y1="95.1501" y2="368.1342"/></g><g><title>S3</title><rect fill="#000000" fill-opacity="0.00000" height="272.984" width="8.3333" x="879.2166" y="95.1501"/><line style="stroke:#ABB6C2;stroke-width:0.5208;stroke-dasharray:5.0,5.0;" x1="882.627" x2="882.627" y1="95.1501" y2="368.1342"/></g><g class="participant participant-head" data-participant="Dev"><text fill="#4E5D6C" font-family="Verdana" font-size="12.5" lengthAdjust="spacing" textLength="22.5252" x="10.4167" y="86.2793">Dev</text><ellipse cx="24.8042" cy="14.0625" fill="url(#g16fh4arbdhvw00)" rx="8.3333" ry="8.3333" style="stroke:#EC7211;stroke-width:0.5208;"/><path d="M24.8042,22.3958 L24.8042,50.5208 M11.2626,30.7292 L38.3459,30.7292 M24.8042,50.5208 L11.2626,66.1458 M24.8042,50.5208 L38.3459,66.1458" fill="none" style="stroke:#EC7211;stroke-width:0.5208;"/></g><g class="participant participant-tail" data-participant="Dev"><text fill="#4E5D6C" font-family="Verdana" font-size="12.5" lengthAdjust="spacing" textLength="22.5252" x="10.4167" y="385.6634">Dev</text><ellipse cx="24.8042" cy="403.3885" fill="url(#g16fh4arbdhvw00)" rx="8.3333" ry="8.3333" style="stroke:#EC7211;stroke-width:0.5208;"/><path d="M24.8042,411.7218 L24.8042,439.8468 M11.2626,420.0551 L38.3459,420.0551 M24.8042,439.8468 L11.2626,455.4718 M24.8042,439.8468 L38.3459,455.4718" fill="none" style="stroke:#EC7211;stroke-width:0.5208;"/></g><g class="participant participant-head" data-participant="GitHub"><rect fill="url(#g16fh4arbdhvw00)" height="42.0251" rx="4.1667" ry="4.1667" style="stroke:#EC7211;stroke-width:0.5208;" width="66.5128" x="96.4835" y="52.0833"/><text fill="#FFFFFF" font-family="Verdana" font-size="12.5" lengthAdjust="spacing" textLength="41.5128" x="108.9835" y="77.9459">GitHub</text></g><g class="participant participant-tail" data-participant="GitHub"><rect fill="url(#g16fh4arbdhvw00)" height="42.0251" rx="4.1667" ry="4.1667" style="stroke:#EC7211;stroke-width:0.5208;" width="66.5128" x="96.4835" y="367.0925"/><text fill="#FFFFFF" font-family="Verdana" font-size="12.5" lengthAdjust="spacing" textLength="41.5128" x="108.9835" y="392.9551">GitHub</text></g><g class="participant participant-head" data-participant="AWS"><rect fill="url(#g16fh4arbdhvw00)" height="42.0251" rx="4.1667" ry="4.1667" style="stroke:#EC7211;stroke-width:0.5208;" width="51.4752" x="256.7463" y="52.0833"/><text fill="#FFFFFF" font-family="Verdana" font-size="12.5" lengthAdjust="spacing" textLength="26.4752" x="269.2463" y="77.9459">AWS</text></g><g class="participant participant-tail" data-participant="AWS"><rect fill="url(#g16fh4arbdhvw00)" height="42.0251" rx="4.1667" ry="4.1667" style="stroke:#EC7211;stroke-width:0.5208;" width="51.4752" x="256.7463" y="367.0925"/><text fill="#FFFFFF" font-family="Verdana" font-size="12.5" lengthAdjust="spacing" textLength="26.4752" x="269.2463" y="392.9551">AWS</text></g><g class="participant participant-head" data-participant="Terraform"><rect fill="url(#g16fh4arbdhvw00)" height="42.0251" rx="4.1667" ry="4.1667" style="stroke:#EC7211;stroke-width:0.5208;" width="85.0504" x="401.9715" y="52.0833"/><text fill="#FFFFFF" font-family="Verdana" font-size="12.5" lengthAdjust="spacing" textLength="60.0504" x="414.4715" y="77.9459">Terraform</text></g><g class="participant participant-tail" data-participant="Terraform"><rect fill="url(#g16fh4arbdhvw00)" height="42.0251" rx="4.1667" ry="4.1667" style="stroke:#EC7211;stroke-width:0.5208;" width="85.0504" x="401.9715" y="367.0925"/><text fill="#FFFFFF" font-family="Verdana" font-size="12.5" lengthAdjust="spacing" textLength="60.0504" x="414.4715" y="392.9551">Terraform</text></g><g class="participant participant-head" data-participant="EKS"><rect fill="url(#g16fh4arbdhvw00)" height="42.0251" rx="4.1667" ry="4.1667" style="stroke:#EC7211;stroke-width:0.5208;" width="46.5501" x="586.1642" y="52.0833"/><text fill="#FFFFFF" font-family="Verdana" font-size="12.5" lengthAdjust="spacing" textLength="21.5501" x="598.6642" y="77.9459">EKS</text></g><g class="participant participant-tail" data-participant="EKS"><rect fill="url(#g16fh4arbdhvw00)" height="42.0251" rx="4.1667" ry="4.1667" style="stroke:#EC7211;stroke-width:0.5208;" width="46.5501" x="586.1642" y="367.0925"/><text fill="#FFFFFF" font-family="Verdana" font-size="12.5" lengthAdjust="spacing" textLength="21.5501" x="598.6642" y="392.9551">EKS</text></g><g class="participant participant-head" data-participant="Job"><rect fill="url(#g16fh4arbdhvw00)" height="42.0251" rx="4.1667" ry="4.1667" style="stroke:#EC7211;stroke-width:0.5208;" width="43.6626" x="726.4644" y="52.0833"/><text fill="#FFFFFF" font-family="Verdana" font-size="12.5" lengthAdjust="spacing" textLength="18.6626" x="738.9644" y="77.9459">Job</text></g><g class="participant participant-tail" data-participant="Job"><rect fill="url(#g16fh4arbdhvw00)" height="42.0251" rx="4.1667" ry="4.1667" style="stroke:#EC7211;stroke-width:0.5208;" width="43.6626" x="726.4644" y="367.0925"/><text fill="#FFFFFF" font-family="Verdana" font-size="12.5" lengthAdjust="spacing" textLength="18.6626" x="738.9644" y="392.9551">Job</text></g><g class="participant participant-head" data-participant="S3"><rect fill="url(#g16fh4arbdhvw00)" height="42.0251" rx="4.1667" ry="4.1667" style="stroke:#EC7211;stroke-width:0.5208;" width="39.0126" x="863.877" y="52.0833"/><text fill="#FFFFFF" font-family="Verdana" font-size="12.5" lengthAdjust="spacing" textLength="14.0126" x="876.377" y="77.9459">S3</text></g><g class="participant participant-tail" data-participant="S3"><rect fill="url(#g16fh4arbdhvw00)" height="42.0251" rx="4.1667" ry="4.1667" style="stroke:#EC7211;stroke-width:0.5208;" width="39.0126" x="863.877" y="367.0925"/><text fill="#FFFFFF" font-family="Verdana" font-size="12.5" lengthAdjust="spacing" textLength="14.0126" x="876.377" y="392.9551">S3</text></g><g class="message" data-participant-1="Dev" data-participant-2="GitHub"><polygon fill="#EC7211" points="117.2399,135.0919,127.6565,139.2586,117.2399,143.4252,121.4065,139.2586" style="stroke:#EC7211;stroke-width:1.0417;"/><line style="stroke:#EC7211;stroke-width:3.125;" x1="24.8042" x2="123.4899" y1="139.2586" y2="139.2586"/><text fill="#4E5D6C" font-family="Verdana" font-size="12.5" lengthAdjust="spacing" textLength="29.1252" x="37.3042" y="128.3044">push</text></g><g class="message" data-participant-1="GitHub" data-participant-2="AWS"><polygon fill="#EC7211" points="269.9839,177.117,280.4005,181.2837,269.9839,185.4504,274.1505,181.2837" style="stroke:#EC7211;stroke-width:1.0417;"/><line style="stroke:#EC7211;stroke-width:3.125;" x1="129.7399" x2="276.2339" y1="181.2837" y2="181.2837"/><text fill="#4E5D6C" font-family="Verdana" font-size="12.5" lengthAdjust="spacing" textLength="105.9758" x="142.2399" y="170.3295">assume OIDC role</text></g><g class="message" data-participant-1="GitHub" data-participant-2="Terraform"><polygon fill="#EC7211" points="431.9967,219.1421,442.4134,223.3088,431.9967,227.4755,436.1634,223.3088" style="stroke:#EC7211;stroke-width:1.0417;"/><line style="stroke:#EC7211;stroke-width:3.125;" x1="129.7399" x2="438.2467" y1="223.3088" y2="223.3088"/><text fill="#4E5D6C" font-family="Verdana" font-size="12.5" lengthAdjust="spacing" textLength="86.1506" x="142.2399" y="212.3546">run plan/apply</text></g><g class="message" data-participant-1="Terraform" data-participant-2="EKS"><polygon fill="#EC7211" points="596.9393,261.1673,607.356,265.3339,596.9393,269.5006,601.106,265.3339" style="stroke:#EC7211;stroke-width:1.0417;"/><line style="stroke:#EC7211;stroke-width:3.125;" x1="444.4967" x2="603.1893" y1="265.3339" y2="265.3339"/><text fill="#4E5D6C" font-family="Verdana" font-size="12.5" lengthAdjust="spacing" textLength="129.5259" x="456.9967" y="254.3797">provision cluster + job</text></g><g class="message" data-participant-1="EKS" data-participant-2="Job"><polygon fill="#EC7211" points="735.7957,303.1924,746.2124,307.359,735.7957,311.5257,739.9624,307.359" style="stroke:#EC7211;stroke-width:1.0417;"/><line style="stroke:#EC7211;stroke-width:3.125;" x1="609.4393" x2="742.0457" y1="307.359" y2="307.359"/><text fill="#4E5D6C" font-family="Verdana" font-size="12.5" lengthAdjust="spacing" textLength="67.3005" x="621.9393" y="296.4049">run crawler</text></g><g class="message" data-participant-1="Job" data-participant-2="S3"><polygon fill="#EC7211" points="870.8833,345.2175,881.3,349.3842,870.8833,353.5508,875.05,349.3842" style="stroke:#EC7211;stroke-width:1.0417;"/><line style="stroke:#EC7211;stroke-width:3.125;" x1="748.2957" x2="877.1333" y1="349.3842" y2="349.3842"/><text fill="#4E5D6C" font-family="Verdana" font-size="12.5" lengthAdjust="spacing" textLength="73.1756" x="760.7957" y="338.43">store results</text></g><!--SRC=[JOuz2y9038Rt-nLnbkBWTeCWAduD3XMSqn9jvNevahiM_xrt5CH0XhpFoqCMiQE102UjMD2_2F8OR2CBx6aqUQ7QmB6FfzHO24axCnybtZvg2wYQik9stkz0sD4VlvC8Fba62v8y18T-XI6uZ_cHKZjSioO8ZxtsxA5rIIC9BE7DZScmT2xSp99MS78a9WSbhzSMD7zB8AJ9HVq2]--></g></svg>